<?xml version="1.0" standalone="no"?>
<svg
  width="600"
  height="600"
  viewBox="0 0 600 600"
  xmlns="http://www.w3.org/2000/svg"
>
  <g transform="translate(300,300)">
    <path d="M124.1,-190.1C169.3,-164.1,220.2,-143.9,248.8,-106.3C277.4,-68.6,283.7,-13.5,273.5,37.5C263.4,88.5,236.7,135.3,201,171.3C165.3,207.4,120.6,232.8,74.5,240.2C28.4,247.5,-19.1,237,-68.7,226.1C-118.4,215.1,-170.3,203.8,-208.4,173.2C-246.4,142.5,-270.7,92.4,-278.9,39.7C-287,-13,-279,-68.4,-255,-114.6C-231,-160.8,-190.9,-197.7,-145.7,-223.8C-100.6,-249.8,-50.3,-264.9,-5.4,-256.5C39.5,-248.1,78.9,-216.2,124.1,-190.1Z" fill="#f2f8ff" />
  </g>
</svg>
  