<?xml version="1.0" encoding="iso-8859-1"?>
<!-- Generator: Adobe Illustrator 18.1.1, SVG Export Plug-In . SVG Version: 6.00 Build 0)  -->
<svg version="1.1" id="Capa_1" xmlns="http://www.w3.org/2000/svg" xmlns:xlink="http://www.w3.org/1999/xlink" x="0px" y="0px"
	 viewBox="0 0 28.074 28.074" style="enable-background:new 0 0 28.074 28.074;" xml:space="preserve">
<g>
	<g id="c186_exit">
		<path style="fill:#030104;" d="M15.401,25.522H2.813V2.567h12.588v8.406c0.854,0,1.672,0,2.425,0V0H0.489v28.074h17.337v-6.235
			c-0.756,0-1.572,0-2.425,0V25.522z"/>
		<path style="fill:#030104;" d="M27.404,15.938c-0.6-0.596-6.307-6.123-6.307-6.123s-0.76-0.765-0.76,0.247
			c0,1.017,0,2.632,0,2.632s-0.44,0-1.113,0c-2.078,0-9.248,0-10.797,0c0,0-0.362-0.013-0.362,0.457s0,5.803,0,6.46
			c0,0.66,0.432,0.544,0.432,0.544c1.593,0,8.63,0,10.78,0c0.752,0,1.241,0,1.241,0s0,2.014,0,2.849
			c0,0.832,0.724,0.066,0.724,0.066l6.111-6.283C27.353,16.787,27.84,16.374,27.404,15.938z"/>
	</g>
</g>
<g>
</g>
<g>
</g>
<g>
</g>
<g>
</g>
<g>
</g>
<g>
</g>
<g>
</g>
<g>
</g>
<g>
</g>
<g>
</g>
<g>
</g>
<g>
</g>
<g>
</g>
<g>
</g>
<g>
</g>
</svg>
